<?xml version="1.0" encoding="UTF-8"?>
<svg width="20px" height="20px" viewBox="0 0 20 20" version="1.1" xmlns="http://www.w3.org/2000/svg" xmlns:xlink="http://www.w3.org/1999/xlink">
    <!-- Generator: Sketch 52.3 (67297) - http://www.bohemiancoding.com/sketch -->
    <title>cart</title>
    <desc>Created with Sketch.</desc>
    <g id="cart" stroke="none" stroke-width="1" fill="none" fill-rule="evenodd">
        <path d="M18.9226204,6.5923527 C19.0043569,6.68325202 19.0452252,6.86505062 18.9226204,7.00139957 L16.3479212,13.4098005 C15.6531611,15.2277866 14.0184314,16.3640279 12.2610969,16.3640279 L5.92651939,16.3640279 C5.72217818,16.3640278 5.55870522,16.2276789 5.51783697,16.0004306 L3.47442484,3.00183021 L1.14493504,0.820246919 C0.981462076,0.683897947 0.940593835,0.36575039 1.1040668,0.183951786 C1.26753977,-0.0432964694 1.51274922,-0.0432964694 1.71709044,0.0930524836 L4.16918497,2.36553507 C4.21005321,2.45643438 4.29178969,2.54733368 4.29178969,2.63823298 L4.86394509,6.36510444 L9.6046612,6.36510444 C9.84987065,6.36510444 10.0133436,6.54690303 10.0133436,6.81960095 C10.0133436,7.09229888 9.84987065,7.27409748 9.6046612,7.27409748 L4.98654982,7.27409748 L6.25346532,15.4550348 L12.3019652,15.4550348 C13.7323537,15.4550348 15.0401374,14.5005921 15.653161,13.0462033 L17.9826509,7.27409748 L16.9609448,7.27409748 C16.7157353,7.27409746 16.5522624,7.09229886 16.5522624,6.81960095 C16.5522624,6.54690305 16.7157354,6.36510444 16.9609448,6.36510444 L18.5956745,6.36510444 C18.7182792,6.36510444 18.8817522,6.45600374 18.9226204,6.5923527 Z M7.9699315,17.2730209 C8.66469162,17.2730209 9.1959788,17.8638664 9.19597878,18.6365104 C9.19597876,19.4091545 8.66469161,20 7.9699315,20 C7.2751714,20 6.74388424,19.4091545 6.74388424,18.6365104 C6.74388424,17.8638664 7.27517138,17.2730209 7.9699315,17.2730209 Z M7.9699315,19.091007 C8.21514097,19.091007 8.37861395,18.9092084 8.37861393,18.6365104 C8.37861392,18.3638125 8.21514095,18.1820139 7.9699315,18.1820139 C7.72472205,18.1820139 7.56124909,18.3638125 7.56124909,18.6365104 C7.56124909,18.9092084 7.72472205,19.091007 7.9699315,19.091007 Z M13.6914854,17.2730209 C14.3862455,17.2730209 14.9175327,17.8638664 14.9175327,18.6365104 C14.9175327,19.4091545 14.3862455,20 13.6914854,20 C12.9967253,20 12.4654382,19.4091545 12.4654382,18.6365104 C12.4654382,17.8638664 12.9967253,17.2730209 13.6914854,17.2730209 Z M13.6914854,19.091007 C13.9366949,19.091007 14.1001679,18.9092084 14.1001679,18.6365104 C14.1001678,18.3638125 13.9366949,18.1820139 13.6914854,18.1820139 C13.446276,18.1820139 13.282803,18.3638125 13.282803,18.6365104 C13.282803,18.9092084 13.446276,19.091007 13.6914854,19.091007 Z M11.4166667,4.91666667 C11.2083333,4.91666665 11,4.70833332 11,4.49999999 C11,4.29166666 11.2083333,4.08333333 11.4166667,4.08333333 L13.0833333,4.08333333 L13.0833333,2.41666666 C13.0833333,2.20833333 13.2916667,2 13.5,2 C13.7083333,2 13.9166667,2.20833333 13.9166667,2.41666666 L13.9166667,4.08333333 L15.5833333,4.08333333 C15.7916667,4.08333333 16,4.29166664 16,4.49999999 C16,4.70833334 15.7916667,4.91666667 15.5833333,4.91666667 L13.9166667,4.91666667 L13.9166667,6.58333332 C13.9166667,6.79166667 13.7083334,7.00000002 13.5,7 C13.2916667,6.99999998 13.0833333,6.79166665 13.0833333,6.58333332 L13.0833333,4.91666667 L11.4166667,4.91666667 Z" id="Combined-Shape" fill="#3D3D3D" fill-rule="nonzero"></path>
    </g>
</svg>