<?xml version="1.0" encoding="UTF-8"?>
<svg width="32px" height="32px" viewBox="0 0 32 32" version="1.1" xmlns="http://www.w3.org/2000/svg" xmlns:xlink="http://www.w3.org/1999/xlink">
    <!-- Generator: Sketch 52.3 (67297) - http://www.bohemiancoding.com/sketch -->
    <title>close</title>
    <desc>Created with Sketch.</desc>
    <g id="close" stroke="none" stroke-width="1" fill="none" fill-rule="evenodd">
        <path d="M17.8328497,16.4984281 L22.7241567,21.3903265 C23.0919478,21.7550181 23.0919478,22.3555018 22.7241567,22.7233374 C22.5418329,22.9088271 22.2997824,23 22.0577318,23 C21.8156813,23 21.5736308,22.9056832 21.391307,22.7233374 L16.4993083,17.8321308 L11.608693,22.7233374 C11.4263692,22.9088271 11.1843187,23 10.9422682,23 C10.7002176,23 10.4581671,22.9056832 10.2758433,22.7233374 C9.90805223,22.3586457 9.90805223,21.758162 10.2758433,21.3903265 L15.1669618,16.5 L10.2758433,11.6096735 C9.90805223,11.2449819 9.90805223,10.6444982 10.2758433,10.2766626 C10.4581671,10.0911729 10.7002176,10 10.9422682,10 C11.1843187,10 11.4263692,10.0911729 11.608693,10.2735187 L16.5008802,15.1662975 L21.391307,10.2766626 C21.5736308,10.0911729 21.8156813,10 22.0577318,10 C22.2997824,10 22.5418329,10.0911729 22.7241567,10.2735187 C23.0919478,10.6382104 23.0919478,11.2386941 22.7241567,11.6065296 L17.8328497,16.4984281 Z M16,2.8 C14.218,2.8 12.49,3.148 10.864,3.838 C9.292,4.501 7.879,5.455 6.667,6.667 C5.455,7.882 4.504,9.292 3.838,10.864 C3.148,12.49 2.8,14.218 2.8,16 C2.8,17.782 3.148,19.51 3.838,21.136 C4.501,22.708 5.455,24.121 6.667,25.333 C7.882,26.545 9.292,27.496 10.864,28.162 C12.49,28.852 14.218,29.2 16,29.2 C17.782,29.2 19.51,28.852 21.136,28.162 C22.708,27.499 24.121,26.545 25.333,25.333 C26.545,24.118 27.496,22.708 28.162,21.136 C28.852,19.51 29.2,17.782 29.2,16 C29.2,14.218 28.852,12.49 28.162,10.864 C27.499,9.292 26.545,7.879 25.333,6.667 C24.118,5.455 22.708,4.504 21.136,3.838 C19.51,3.148 17.782,2.8 16,2.8 Z M16,1 C24.283,1 31,7.717 31,16 C31,24.283 24.283,31 16,31 C7.717,31 1,24.283 1,16 C1,7.717 7.717,1 16,1 Z" id="Combined-Shape" fill="#666666" fill-rule="nonzero"></path>
    </g>
</svg>