<?xml version="1.0" encoding="UTF-8"?>
<svg width="20px" height="20px" viewBox="0 0 20 20" version="1.1" xmlns="http://www.w3.org/2000/svg" xmlns:xlink="http://www.w3.org/1999/xlink">
    <!-- Generator: Sketch 52.3 (67297) - http://www.bohemiancoding.com/sketch -->
    <title>comment</title>
    <desc>Created with Sketch.</desc>
    <g id="comment" stroke="none" stroke-width="1" fill="none" fill-rule="evenodd">
        <path d="M10.0612245,0.5 C14.9591837,0.5 19,4.21363637 19,8.74772727 C19,13.2818182 15,16.9522727 10.0612245,16.9522727 L9.28571429,16.9522727 L8.30612244,19.2409091 C8.26530613,19.4136364 8.10204082,19.5 7.93877551,19.5 C7.89795918,19.5 7.77551019,19.4568182 7.69387754,19.4136364 C5.65306122,18.0318182 1,14.275 1,8.70454545 C1,4.17045455 5.08163266,0.5 10.0612245,0.5 Z M10.0612245,16.0022727 C14.5102041,16.0022727 18.1428571,12.7636364 18.1428571,8.74772727 C18.1428571,4.73181818 14.5510204,1.49318182 10.0612245,1.45 C7.85714285,1.45 5.7755102,2.22727273 4.22448979,3.65227273 C2.71428572,4.99090908 1.89795918,6.80454545 1.89795918,8.70454545 C1.89795918,13.1090909 5.24489796,16.3909091 7.24489795,17.9454545 L7.73469388,18.3340909 L8.75510204,15.9590909 L9.65306122,16.0022727 L10.0612245,16.0022727 Z M5,9 C5,8.17157288 5.62007118,7.5 6.38496775,7.5 C7.14986432,7.5 7.76993551,8.17157288 7.76993551,9 C7.76993551,9.82842712 7.14986432,10.5 6.38496775,10.5 C5.62007118,10.5 5,9.82842712 5,9 Z M8.69324734,9 C8.69324734,8.17157288 9.31331852,7.5 10.0782151,7.5 C10.8431117,7.5 11.4631828,8.17157288 11.4631828,9 C11.4631828,9.82842712 10.8431117,10.5 10.0782151,10.5 C9.31331852,10.5 8.69324734,9.82842712 8.69324734,9 Z M12.3864947,9 C12.3864947,8.17157288 13.0065659,7.5 13.7714624,7.5 C14.536359,7.5 15.1564302,8.17157288 15.1564302,9 C15.1564302,9.82842712 14.536359,10.5 13.7714624,10.5 C13.0065659,10.5 12.3864947,9.82842712 12.3864947,9 Z" id="Combined-Shape" fill="#333333" fill-rule="nonzero"></path>
    </g>
</svg>