<?xml version="1.0" encoding="UTF-8"?>
<svg width="20px" height="20px" viewBox="0 0 20 20" version="1.1" xmlns="http://www.w3.org/2000/svg" xmlns:xlink="http://www.w3.org/1999/xlink">
    <!-- Generator: Sketch 52.3 (67297) - http://www.bohemiancoding.com/sketch -->
    <title>like-sel</title>
    <desc>Created with Sketch.</desc>
    <g id="like-sel" stroke="none" stroke-width="1" fill="none" fill-rule="evenodd">
        <path d="M4.67435517,19 C4.64580796,19 4.61577849,18.9973237 4.58042387,18.9915726 L4.57098133,18.9900351 L1.74414888,18.9891241 L1.73404756,18.9906615 C1.70083398,18.9962418 1.66690672,18.9993736 1.63325395,19 C1.28437412,19 1,18.6953032 1,18.3205107 L1.0070819,8.85321423 C1.00428208,8.66462221 1.08064586,8.48422985 1.2163549,8.35872961 C1.35255803,8.23220441 1.53460138,8.1725861 1.71604086,8.19502126 L1.72416583,8.19593233 L4.38311874,8.18927011 L4.38311874,8.1632476 C6.76263839,7.69991027 8.48057648,6.02592835 8.54744282,3.47264754 L8.54744282,3.46507425 L8.54705853,3.4572732 C8.5410197,3.389683 8.53783559,3.3218081 8.537616,3.25399013 C8.537616,2.01994237 9.53545074,1.01542795 10.6846406,1.01542795 C11.1654415,1.01542795 11.3822356,0.912932285 11.7556001,1.2363061 C12.1178203,1.55039836 12.3746903,1.87849836 12.4791621,2.36313201 L12.5050741,2.48373524 L12.5145167,2.48236863 C12.624094,3.05025154 12.6794317,3.62610633 12.6794317,4.19774741 C12.6794317,5.14845161 12.5320842,6.08287039 12.2417261,6.97543677 L12.182326,7.15742351 L16.8405717,7.1625483 C16.8695032,7.1625483 16.8995326,7.16516763 16.9359852,7.17143125 L16.9428475,7.17228538 L16.9503686,7.17296869 C17.6614686,7.20235078 18.3076237,7.60629757 18.6809334,8.2515647 C18.9191928,8.66502081 19.0285505,9.14390332 18.9936351,9.62346913 L18.9931959,9.634402 L18.9936351,9.64459462 C18.999619,9.72334546 18.9936351,9.80010332 18.9751892,9.8741849 L18.9740912,9.87885415 L17.3320778,17.5213293 C17.3131927,17.5953539 17.2825593,17.6661329 17.2418247,17.7301926 L17.2366642,17.7379368 L17.2327664,17.7466489 C17.0642281,18.1118751 16.8036799,18.4228355 16.4787907,18.6470163 C16.177947,18.8532034 15.8290123,18.973522 15.4678901,18.9962418 L15.4678901,18.9937933 L4.7776741,18.9900351 L4.76828646,18.9915726 C4.73671984,18.9969251 4.70586689,18.9993736 4.67435517,19 Z" id="Fill-3" fill="#AF1654"></path>
    </g>
</svg>