<?xml version="1.0" encoding="UTF-8"?>
<svg width="20px" height="20px" viewBox="0 0 20 20" version="1.1" xmlns="http://www.w3.org/2000/svg" xmlns:xlink="http://www.w3.org/1999/xlink">
    <!-- Generator: Sketch 52.6 (67491) - http://www.bohemiancoding.com/sketch -->
    <title>lock</title>
    <desc>Created with Sketch.</desc>
    <g id="lock" stroke="none" stroke-width="1" fill="none" fill-rule="evenodd">
        <path d="M16,8 L4,8 L3,8 L3,16 C3,17.1045695 3.8954305,18 5,18 L15,18 C16.1045695,18 17,17.1045695 17,16 L17,8 L16,8 Z M4,7 L4,6 C4,2.6862915 6.6862915,1.12637172e-14 10,1.0658141e-14 C13.3137085,1.00525648e-14 16,2.6862915 16,6 L16,7 L18,7 L18,16 C18,17.6568542 16.6568542,19 15,19 L5,19 C3.34314575,19 2,17.6568542 2,16 L2,7 L4,7 Z M5,7 L15,7 L15,6 C15,3.23857625 12.7614237,1 10,1 C7.23857625,1 5,3.23857625 5,6 L5,7 Z M10,16 C8.61928813,16 7.5,14.8807119 7.5,13.5 C7.5,12.1192881 8.61928813,11 10,11 C11.3807119,11 12.5,12.1192881 12.5,13.5 C12.5,14.8807119 11.3807119,16 10,16 Z M10,15 C10.8284271,15 11.5,14.3284271 11.5,13.5 C11.5,12.6715729 10.8284271,12 10,12 C9.17157288,12 8.5,12.6715729 8.5,13.5 C8.5,14.3284271 9.17157288,15 10,15 Z" id="Combined-Shape" fill="#4E4E4E" fill-rule="nonzero"></path>
    </g>
</svg>