<?xml version="1.0" encoding="UTF-8"?>
<svg width="20px" height="20px" viewBox="0 0 20 20" version="1.1" xmlns="http://www.w3.org/2000/svg" xmlns:xlink="http://www.w3.org/1999/xlink">
    <!-- Generator: Sketch 52.6 (67491) - http://www.bohemiancoding.com/sketch -->
    <title>play</title>
    <desc>Created with Sketch.</desc>
    <g id="play" stroke="none" stroke-width="1" fill="none" fill-rule="evenodd">
        <path d="M10,17.5 C5.85786438,17.5 2.5,14.1421356 2.5,10 C2.5,5.85786438 5.85786438,2.5 10,2.5 C14.1421356,2.5 17.5,5.85786438 17.5,10 C17.5,14.1421356 14.1421356,17.5 10,17.5 Z M10,16.5 C13.5898509,16.5 16.5,13.5898509 16.5,10 C16.5,6.41014913 13.5898509,3.5 10,3.5 C6.41014913,3.5 3.5,6.41014913 3.5,10 C3.5,13.5898509 6.41014913,16.5 10,16.5 Z M13,10 L8,13 L8,7 L13,10 Z" id="Combined-Shape" fill="#979797" fill-rule="nonzero"></path>
    </g>
</svg>