<?xml version="1.0" encoding="UTF-8"?>
<svg width="20px" height="20px" viewBox="0 0 20 20" version="1.1" xmlns="http://www.w3.org/2000/svg" xmlns:xlink="http://www.w3.org/1999/xlink">
    <!-- Generator: Sketch 52.3 (67297) - http://www.bohemiancoding.com/sketch -->
    <title>shares</title>
    <desc>Created with Sketch.</desc>
    <g id="shares" stroke="none" stroke-width="1" fill="none" fill-rule="evenodd">
        <path d="M9.99995556,18 C8.92440598,18 7.87552291,17.7867556 6.88886173,17.3688889 C5.9377559,16.9688889 5.08442731,16.3911111 4.34665363,15.6533333 C3.60887995,14.9155556 3.03110538,14.0622222 2.6311076,13.1111111 C2.21333215,12.1244444 2,11.0756444 2,10 C2,8.92435556 2.21333215,7.87555556 2.6311076,6.88888889 C3.03110538,5.93777778 3.60887995,5.08444444 4.34665363,4.34666667 C5.08442731,3.60888889 5.9377559,3.03111111 6.88886173,2.63111111 C7.87552291,2.21333333 8.92440598,2 9.99995556,2 C11.0755051,2 12.1243882,2.21333333 13.1110494,2.63111111 C14.0621552,3.03111111 14.9155727,3.60888889 15.6533464,4.34666667 C16.39112,5.08444444 16.9688946,5.93777778 17.3688924,6.88888889 C17.7866679,7.87555556 18,8.92444444 18,10 C18,11.0755556 17.7867567,12.1244444 17.3688924,13.1111111 C16.9688946,14.0622222 16.39112,14.9156444 15.6533464,15.6534222 C14.9155727,16.3912 14.0621552,16.9688889 13.1110494,17.3688889 C12.1243882,17.7866667 11.0755051,18 9.99995556,18 Z M9.99995556,2.8 C6.0266443,2.8 2.79999556,6.02666667 2.79999556,10 C2.79999556,13.9733333 6.0266443,17.2 9.99995556,17.2 C13.9732668,17.2 17.1999156,13.9733333 17.1999156,10 C17.1999156,6.02666667 13.9732668,2.8 9.99995556,2.8 Z M13.0768273,11.3937426 C13.944732,11.3937426 14.6,12.0908278 14.6,13.0015644 C14.6,13.9123009 13.9534996,14.6 13.0767387,14.6 C12.2354025,14.6 11.5978468,13.9587671 11.553566,13.0944967 L8.06423491,11.5332339 C7.75426895,11.7375921 7.37345363,11.8491109 6.9660698,11.8491109 C5.87676086,11.8491109 5,10.929081 5,9.78601369 C5,8.64294634 5.87676086,7.72291653 6.9660698,7.72291653 C7.63028257,7.72291653 8.2147898,8.1132322 8.56903661,8.67082603 L10.3580716,7.23037531 C10.2871336,7.0445107 10.2428528,6.8307664 10.2428528,6.59843564 C10.2428528,5.68769905 10.8894418,5 11.7661141,5 C12.6429635,5 13.2982315,5.68769905 13.2982315,6.59843564 C13.2982315,7.50917222 12.6428749,8.19687128 11.7661141,8.19687128 C11.4030997,8.19687128 11.0753328,8.07605928 10.8185039,7.87160821 L8.87900257,9.45145739 C8.91442725,9.60014908 8.9321396,9.758134 8.9321396,9.91611891 C8.9321396,10.2971414 8.83472172,10.6502841 8.65759832,10.9383743 L11.6952647,12.295093 C11.9344699,11.7468853 12.4480392,11.3937426 13.0768273,11.3937426 Z" id="Combined-Shape" fill="#333333" fill-rule="nonzero"></path>
    </g>
</svg>