<?xml version="1.0" encoding="UTF-8"?>
<svg width="20px" height="20px" viewBox="0 0 20 20" version="1.1" xmlns="http://www.w3.org/2000/svg" xmlns:xlink="http://www.w3.org/1999/xlink">
    <!-- Generator: Sketch 52.3 (67297) - http://www.bohemiancoding.com/sketch -->
    <title>share</title>
    <desc>Created with Sketch.</desc>
    <g id="share" stroke="none" stroke-width="1" fill="none" fill-rule="evenodd">
        <path d="M17.2242904,9.04723127 C17.49651,9.04723127 17.7142857,9.26500698 17.7142857,9.53722662 L17.7142857,16.5060493 C17.7142857,17.5404839 16.8976268,18.3571429 15.8631922,18.3571429 L2.85109353,18.3571429 C1.81665891,18.3571429 1,17.5404839 1,16.5060493 L1,3.49395067 C1,2.45951605 1.81665891,1.64285714 2.85109353,1.64285714 L8.13215449,1.64285714 C8.40437413,1.64285714 8.62214984,1.86063285 8.62214984,2.13285249 C8.62214984,2.40507213 8.40437413,2.62284784 8.13215449,2.62284784 L2.85109353,2.62284784 C2.36109819,2.62284784 1.97999069,3.00395533 1.97999069,3.49395067 L1.97999069,16.5060493 C1.97999069,16.9960447 2.36109819,17.3771522 2.85109353,17.3771522 L15.8631922,17.3771522 C16.3531875,17.3771522 16.734295,16.9960447 16.734295,16.5060493 L16.734295,9.53722662 C16.734295,9.26500698 16.9520707,9.04723127 17.2242904,9.04723127 Z M18.9469261,3.97203878 C18.9469261,4.02789287 18.9469261,4.02789287 18.9469261,3.97203878 C18.9469261,4.02789287 18.8938523,4.08374696 18.8938523,4.13960106 L18.8407784,4.19545515 L15.8155683,7.2115761 C15.7094206,7.2674302 15.6032729,7.32328429 15.4971252,7.32328429 C15.3379036,7.32328429 15.2317559,7.2674302 15.178682,7.15572201 C14.9663866,6.93230565 14.9663866,6.59718109 15.178682,6.42961882 L17.1424149,4.47472561 C14.5417957,5.03326652 9.18133569,7.04401383 7.11145511,14.8077326 C7.00530739,14.9752949 6.8460858,15.1428571 6.63379036,15.1428571 L6.47456877,15.1428571 C6.20919947,15.0870031 6.10305175,14.8077326 6.15612561,14.5284621 C7.74834144,8.88719886 11.0389208,6.09449427 13.5333923,4.80985016 C14.4887218,4.30716333 15.3909774,3.97203878 16.1870854,3.74862241 L14.4356479,3.30178968 C14.1702786,3.24593559 14.0110571,2.96666513 14.0641309,2.68739467 C14.1172048,2.40812421 14.3825741,2.24056193 14.6479434,2.29641603 L18.7346307,3.30178968 L18.7877046,3.30178968 C18.8407784,3.30178968 18.8407784,3.35764377 18.8938523,3.35764377 L18.9469261,3.41349786 L18.9469261,3.46935195 C18.9469261,3.46935195 19,3.46935195 19,3.52520605 L19,3.58106014 L19,3.74862241 L19,3.8044765 L19,3.91618469 C18.9469261,3.91618469 18.9469261,3.91618469 18.9469261,3.97203878 Z" id="Combined-Shape" fill="#333333"></path>
    </g>
</svg>