<?xml version="1.0" encoding="UTF-8"?>
<svg width="20px" height="20px" viewBox="0 0 20 20" version="1.1" xmlns="http://www.w3.org/2000/svg" xmlns:xlink="http://www.w3.org/1999/xlink">
    <!-- Generator: Sketch 52.3 (67297) - http://www.bohemiancoding.com/sketch -->
    <title>star-sel</title>
    <desc>Created with Sketch.</desc>
    <g id="star-sel" stroke="none" stroke-width="1" fill="none" fill-rule="evenodd">
        <path d="M14.4737032,19 C14.1966067,19 13.9175022,18.9281353 13.6705249,18.7928605 L10,16.7573978 L6.33349101,18.7907468 C5.77126619,19.0972287 5.08053284,19.0549554 4.56449078,18.6935181 C4.03238515,18.3151714 3.75729658,17.6514796 3.8637177,17.004697 L4.5785464,12.6040395 L1.48831785,9.42719587 C1.03653005,8.96430249 0.883926169,8.29215594 1.09074458,7.6728511 C1.29555505,7.06200094 1.80958917,6.62447158 2.43606826,6.52935651 L6.6487385,5.88468765 L8.4779771,1.9765148 C8.75708156,1.38257398 9.35344146,1 10,1 C10.6485665,1 11.2449264,1.38257398 11.5220229,1.9765148 L13.3512615,5.88468765 L17.5639317,6.52935651 C18.1884029,6.62447158 18.7044449,7.06200094 18.9092554,7.67073744 C19.1160738,8.29004227 18.96347,8.96218882 18.5116822,9.4250822 L15.4214536,12.6040395 L16.1382902,17.0068107 C16.2447114,17.6535932 15.9696228,18.3172851 15.4395251,18.6935181 C15.1503809,18.8943166 14.8190699,19 14.4737032,19 Z" id="形状" fill="#AF1654" fill-rule="nonzero"></path>
    </g>
</svg>