<?xml version="1.0" encoding="UTF-8"?>
<svg width="20px" height="20px" viewBox="0 0 20 20" version="1.1" xmlns="http://www.w3.org/2000/svg" xmlns:xlink="http://www.w3.org/1999/xlink">
    <!-- Generator: Sketch 52.3 (67297) - http://www.bohemiancoding.com/sketch -->
    <title>star</title>
    <desc>Created with Sketch.</desc>
    <g id="star" stroke="none" stroke-width="1" fill="none" fill-rule="evenodd">
        <path d="M14.4737032,19 C14.1966067,19 13.9175022,18.9281353 13.6705249,18.7928605 L10,16.7573978 L6.33349101,18.7907468 C5.77126619,19.0972287 5.08053284,19.0549554 4.56449078,18.6935181 C4.03238515,18.3151714 3.75729658,17.6514796 3.8637177,17.004697 L4.5785464,12.6040395 L1.48831785,9.42719587 C1.03653005,8.96430249 0.883926169,8.29215594 1.09074458,7.6728511 C1.29555505,7.06200094 1.80958917,6.62447158 2.43606826,6.52935651 L6.6487385,5.88468765 L8.4779771,1.9765148 C8.75708156,1.38257398 9.35344146,1 10,1 C10.6485665,1 11.2449264,1.38257398 11.5220229,1.9765148 L13.3512615,5.88468765 L17.5639317,6.52935651 C18.1884029,6.62447158 18.7044449,7.06200094 18.9092554,7.67073744 C19.1160738,8.29004227 18.96347,8.96218882 18.5116822,9.4250822 L15.4214536,12.6040395 L16.1382902,17.0068107 C16.2447114,17.6535932 15.9696228,18.3172851 15.4395251,18.6935181 C15.1503809,18.8943166 14.8190699,19 14.4737032,19 Z M10,15.6836543 L14.0881776,17.9495068 C14.3512185,18.0932363 14.6885534,18.0742132 14.9355307,17.9030061 C15.1724683,17.7339126 15.2929451,17.4506811 15.2467623,17.1653358 L14.4516158,12.2721935 L17.8811872,8.74659465 C18.0779659,8.54368248 18.146236,8.25410991 18.0578864,7.98778769 C17.9675288,7.71723814 17.7225595,7.51432597 17.4354232,7.46993894 L12.7528937,6.75340535 L10.7128208,2.39502114 C10.5863202,2.12447158 10.3072157,1.94903711 10,1.94903711 C9.69479224,1.94903711 9.41367983,2.12447158 9.28717925,2.39502114 L7.24911428,6.75340535 L2.56457678,7.46993894 C2.27543259,7.51432597 2.03247115,7.71723814 1.94211359,7.98778769 C1.85376398,8.25410991 1.92002619,8.54368248 2.11881282,8.74659465 L5.54838421,12.2743072 L4.75323768,17.1674495 C4.70705493,17.4527947 4.82753168,17.7360263 5.06647722,17.9072334 C5.30943866,18.0784406 5.64677355,18.0974636 5.91583829,17.9516205 L10,15.6836543 Z" id="形状" fill="#333333" fill-rule="nonzero"></path>
    </g>
</svg>