<?xml version="1.0" encoding="UTF-8"?>
<svg width="20px" height="20px" viewBox="0 0 20 20" version="1.1" xmlns="http://www.w3.org/2000/svg" xmlns:xlink="http://www.w3.org/1999/xlink">
    <!-- Generator: Sketch 52.6 (67491) - http://www.bohemiancoding.com/sketch -->
    <title>unlock</title>
    <desc>Created with Sketch.</desc>
    <g id="unlock" stroke="none" stroke-width="1" fill="none" fill-rule="evenodd">
        <path d="M8.5,7 L8.5,5 C8.5,2.53282771 10.1940231,0.5 12.3333333,0.5 L15.6666667,0.5 C17.8059769,0.5 19.5,2.53282771 19.5,5 L19.5,7 L18.5,7 L18.5,5 C18.5,3.04889429 17.2092548,1.5 15.6666667,1.5 L12.3333333,1.5 C10.7907452,1.5 9.5,3.04889429 9.5,5 L9.5,7 L17,7 L17,16 C17,17.6568542 15.6568542,19 14,19 L4,19 C2.34314575,19 1,17.6568542 1,16 L1,7 L8.5,7 Z M2,8 L2,16 C2,17.1045695 2.8954305,18 4,18 L14,18 C15.1045695,18 16,17.1045695 16,16 L16,8 L2,8 Z M9,15.5 C7.61928813,15.5 6.5,14.3807119 6.5,13 C6.5,11.6192881 7.61928813,10.5 9,10.5 C10.3807119,10.5 11.5,11.6192881 11.5,13 C11.5,14.3807119 10.3807119,15.5 9,15.5 Z M9,14.5 C9.82842712,14.5 10.5,13.8284271 10.5,13 C10.5,12.1715729 9.82842712,11.5 9,11.5 C8.17157288,11.5 7.5,12.1715729 7.5,13 C7.5,13.8284271 8.17157288,14.5 9,14.5 Z" id="Combined-Shape" fill="#4E4E4E" fill-rule="nonzero"></path>
    </g>
</svg>